<svg id="Capa_1" data-name="Capa 1" xmlns="http://www.w3.org/2000/svg" viewBox="0 0 91.48 167.5"><defs><style>.cls-1{fill:#373737;}</style></defs><title>Mesa de trabajo 7 copia 15</title><path class="cls-1" d="M85.31,128.72a45.62,45.62,0,0,1-2.64-3.78c-5.56-9.29-8-20.3-10.29-31-.61-2.79-1.25-5.67-1.92-8.45-1.22-5-1.9-9.25-2.55-13.34a98.6,98.6,0,0,0-4.83-20.08c-5-13.65-12.36-23.89-26.26-36.53-1.32-1.2-.7-3.83.23-7.82.42-1.8.89-3.83,1.27-6.13a.74.74,0,1,0-1.47-.24c-.38,2.24-.85,4.25-1.26,6-1,4.34-1.75,7.48.22,9.27,13.71,12.46,21,22.53,25.87,35.94a97.24,97.24,0,0,1,4.74,19.8c.67,4.11,1.35,8.37,2.58,13.45.67,2.76,1.3,5.64,1.91,8.42,2.29,10.49,4.66,21.31,10,30.64h0a22.61,22.61,0,0,1-24.77,3.86c.1-.31.21-.62.28-.92,3.4-13.59-3.24-27.27-10.33-40.12-6.33-11.47-13.93-25-22.24-38.25-.61-1-1.22-2-1.83-3a88,88,0,0,0-8.34-12.05c-1.21-1.39-2.51-2.72-3.76-4a56.36,56.36,0,0,1-6.69-7.79c-3.59-5.38.07-20.87.11-21a.75.75,0,0,0-1.46-.34C1.73,2-2,17.62,2,23.54a57.22,57.22,0,0,0,6.85,8c1.24,1.27,2.52,2.59,3.71,3.95a86.3,86.3,0,0,1,8.19,11.84c.61,1,1.22,2,1.84,3C30.88,63.54,38.47,77,44.79,88.5c6.94,12.59,13.45,26,10.19,39-.84,3.34-3.45,7.05-4.94,8.95-1,1.34-2,2.73-2.71,3.8-5.22,7.75-9.27,13.07-17.67,16.3-1.11.48-2.21.87-3.27,1.25C23.13,159,20.32,160,21,162.54c.78,3.11,2,4.38,11.54,4.38,1.67,0,3.15,0,4.5.06l1.49,0h1.6c4.53,0,7.65-.46,11.91-3.41C64.49,155,66.94,153.42,73.11,151.3a30.1,30.1,0,0,1,6.29-1.42,17.38,17.38,0,0,0,5.52-1.42A9.67,9.67,0,0,0,90,143.32C92.19,137.9,88.54,133,85.31,128.72ZM32.5,165.42c-9.27,0-9.56-1.15-10.08-3.25-.29-1.17,1.51-1.88,4.47-2.93.9-.32,1.9-.69,2.89-1.09a.74.74,0,0,0,.26.15l5.63,1.88c.32.22,1.9,1.54,2.1,5.31H37C35.68,165.45,34.18,165.42,32.5,165.42Zm40.13-15.53c-6.36,2.17-8.85,3.74-21.49,12.48-4.15,2.88-7.06,3.2-11.88,3.15-.23-5.07-2.78-6.61-2.89-6.67l-.14-.07-4.41-1.47c7.72-3.41,11.71-8.7,16.75-16.19.71-1.05,1.65-2.42,2.66-3.72a34.71,34.71,0,0,0,4.39-7.19,24.18,24.18,0,0,0,26.1-4c.7,1.09,1.52,2.2,2.39,3.36s1.57,2.1,2.29,3.17c-1.89,1.43-8.25,4.55-10.67,5.69a.76.76,0,0,0-.41.87c.33,1.26,1.86,6.78,4,9l-.12,0A29.93,29.93,0,0,0,72.63,149.89Zm16-7.13a8.18,8.18,0,0,1-4.31,4.33,13.24,13.24,0,0,1-3,1,.71.71,0,0,0-.3-.21c-1.4-.45-3.18-4.92-4.12-8.28,1.92-.92,8-3.89,10.27-5.52C88.87,136.85,89.83,139.74,88.61,142.76Z"/></svg>
