<svg id="Capa_1" data-name="Capa 1" xmlns="http://www.w3.org/2000/svg" viewBox="0 0 91.48 167.5"><defs><style>.cls-1{fill:#373737;}</style></defs><title>Mesa de trabajo 7 copia 12</title><path class="cls-1" d="M85.74,128.66a44.17,44.17,0,0,1-2.65-3.77c-5.56-9.29-8-20.31-10.29-31-.61-2.79-1.24-5.68-1.91-8.45-1.11-4.57-2-9.28-2.89-13.84-1.61-8.39-3.27-17.07-6.28-25.27C57.31,34.3,50,25.06,37.19,15.48c-1.37-1-.7-3.79.22-7.63.45-1.84,1-3.93,1.34-6.27a.75.75,0,0,0-1.48-.25C36.89,3.62,36.39,5.68,36,7.5c-1.05,4.39-1.82,7.56.34,9.18s3.93,3.06,5.7,4.59c-1.25,1.55-9.63,11-28.24,12.79-1.11-1.25-2.27-2.45-3.4-3.61a56.89,56.89,0,0,1-6.68-7.79c-3.59-5.39.06-20.87.1-21a.74.74,0,0,0-.55-.9.75.75,0,0,0-.91.55c-.16.66-3.84,16.28.11,22.21a57.86,57.86,0,0,0,6.86,8c1.24,1.28,2.52,2.6,3.71,4a86.75,86.75,0,0,1,8.18,11.83c.62,1,1.23,2,1.84,3,4,6.45,7.55,13.29,11,19.9,1.93,3.76,3.92,7.65,6,11.44.92,1.67,1.73,3.11,2.49,4.45,1.7,3,3.16,5.62,5,9.45,4.9,10.07,6.14,14.9,6.64,17.66.76,4.21,1.39,8.77,0,14.31-.84,3.35-3.45,7.05-4.94,9-1,1.34-2,2.73-2.71,3.8a41.88,41.88,0,0,1-20.21,16.3c-1.11.47-2.21.86-3.28,1.24-3.25,1.16-6.06,2.16-5.42,4.71.78,3.12,2,4.39,11.54,4.39,1.62,0,3.13,0,4.54,0l1.43,0h.12l2,0c5.13,0,9-.47,13.27-3.42,12.63-8.73,17-10.23,23-12.3a29.27,29.27,0,0,1,6.28-1.42,17.86,17.86,0,0,0,5.52-1.42,9.72,9.72,0,0,0,5.09-5.14C92.61,137.84,89,133,85.74,128.66ZM43.13,22.26a71.06,71.06,0,0,1,6.54,6.58c-10.59,13.92-27.35,14.73-29,14.78a77.09,77.09,0,0,0-5.73-8.18C33.33,33.37,41.6,24.16,43.13,22.26Zm-14,143.11c-9.27,0-9.56-1.16-10.08-3.25-.3-1.17,1.51-1.88,4.47-2.93.9-.32,1.9-.69,2.89-1.1a.76.76,0,0,0,.26.16l5.63,1.87c.32.23,1.9,1.54,2.09,5.32l-.69,0C32.26,165.4,30.74,165.37,29.11,165.37Zm43.94-15.54c-6.57,2.25-11.21,4.06-23.39,12.49-4.25,2.94-8.24,3.21-13.79,3.14-.24-5.07-2.78-6.6-2.89-6.67l-.14-.06-4.4-1.47a43.13,43.13,0,0,0,19.28-16.2c.71-1,1.65-2.41,2.66-3.71,1.55-2,4.3-5.9,5.2-9.51a33.91,33.91,0,0,0,0-14.94c-.51-2.85-1.78-7.82-6.76-18.06-1.89-3.87-3.37-6.49-5.08-9.52C43,84,42.19,82.55,41.28,80.88c-2.07-3.77-4.06-7.65-6-11.41-3.41-6.64-6.93-13.51-11-20-.61-1-1.22-2-1.83-3l-.88-1.43c4.06-.28,19.11-2.18,29.08-15.06a56.32,56.32,0,0,1,9.67,16.87c3,8.09,4.61,16.71,6.21,25.05.88,4.57,1.78,9.3,2.9,13.9.67,2.76,1.3,5.64,1.9,8.42,2.36,10.77,4.79,21.91,10.48,31.41a46.07,46.07,0,0,0,2.73,3.9l1.12,1.51c-2.36,1.63-9.78,5.31-12.69,6.72a.74.74,0,0,0-.38.93c.91,2.53,2.91,7.62,4.89,9.95A29.11,29.11,0,0,0,73.05,149.83Zm16-7.12A8.11,8.11,0,0,1,84.72,147a16.45,16.45,0,0,1-5.1,1.3l-.27,0c-.92-.17-3.24-4.52-5.12-9.54,2.22-1.08,9.66-4.74,12.3-6.55C88.83,135.63,90.5,139.07,89,142.71Z"/></svg>