<svg id="Capa_1" data-name="Capa 1" xmlns="http://www.w3.org/2000/svg" viewBox="0 0 91.48 167.5"><defs><style>.cls-1{fill:#373737;}</style></defs><title>Mesa de trabajo 7 copia 13</title><path class="cls-1" d="M85.45,128.74c-1-1.33-1.93-2.58-2.65-3.77-5.56-9.29-8-20.31-10.29-31-.61-2.79-1.24-5.68-1.91-8.46-1.11-4.56-2-9.28-2.89-13.83-1.61-8.4-3.27-17.07-6.28-25.28C57,34.38,49.68,25.14,36.9,15.56c-1.37-1-.7-3.8.22-7.63.45-1.84,1-3.93,1.34-6.27A.75.75,0,1,0,37,1.41c-.38,2.29-.88,4.35-1.32,6.17-1,4.39-1.81,7.56.34,9.18C48.53,26.15,55.72,35.19,60,47a113.33,113.33,0,0,1,4,14.31.71.71,0,0,0-.29.23c-.07.1-7.57,10.33-27.52,10.48L35,69.55c-3.41-6.64-6.93-13.51-11-20-.61-1-1.22-2-1.83-3a88.86,88.86,0,0,0-8.33-12c-1.22-1.38-2.51-2.72-3.77-4a56.3,56.3,0,0,1-6.68-7.79c-3.59-5.38.07-20.87.1-21A.75.75,0,0,0,2.93.8.76.76,0,0,0,2,1.36c-.15.66-3.84,16.28.11,22.21a57.86,57.86,0,0,0,6.86,8c1.24,1.27,2.52,2.59,3.71,4a86.86,86.86,0,0,1,8.18,11.84l1.84,3c4,6.44,7.55,13.28,11,19.9,1.93,3.76,3.92,7.65,6,11.44.92,1.67,1.73,3.11,2.49,4.45,1.7,3,3.16,5.62,5,9.45,4.9,10.06,6.14,14.9,6.64,17.66.76,4.2,1.39,8.77,0,14.31-.84,3.35-3.45,7-4.93,9-1,1.32-1.95,2.66-2.72,3.79A41.77,41.77,0,0,1,26,156.6c-1.11.48-2.21.87-3.27,1.25-3.26,1.16-6.06,2.16-5.43,4.71.78,3.11,2,4.38,11.54,4.38,1.63,0,3.13,0,4.54.06l1.42,0,.08,0h.06l2,0c5.13,0,9-.48,13.28-3.42,12.62-8.74,17-10.23,23-12.3a28.8,28.8,0,0,1,6.28-1.42,17.55,17.55,0,0,0,5.52-1.43,9.67,9.67,0,0,0,5.09-5.13C92.32,137.92,88.67,133,85.45,128.74ZM37,73.47c17.44-.35,25.39-8,27.44-10.42.63,3,1.21,6,1.78,9,.05.29.11.58.17.87-10.09,10.06-23.76,9.36-24.75,9.3-.22-.39-.44-.8-.67-1.22C39.63,78.48,38.32,76,37,73.47Zm-8.2,92c-9.27,0-9.56-1.15-10.08-3.24-.29-1.18,1.51-1.88,4.47-2.94.9-.32,1.9-.68,2.89-1.09a.61.61,0,0,0,.26.15L32,160.2c.32.23,1.9,1.54,2.1,5.31h-.7C32,165.47,30.46,165.44,28.82,165.44Zm43.94-15.53c-6.57,2.25-11.21,4.06-23.39,12.49-4.25,2.94-8.24,3.2-13.79,3.14-.24-5.07-2.78-6.61-2.89-6.67a.35.35,0,0,0-.14-.06l-4.4-1.47a43.27,43.27,0,0,0,19.29-16.2c.75-1.11,1.65-2.43,2.65-3.71,1.56-2,4.3-5.9,5.2-9.52a34.11,34.11,0,0,0,0-14.94c-.52-2.85-1.79-7.82-6.77-18-1.89-3.87-3.36-6.49-5.08-9.53l-1-1.68h.61c4.08,0,14.84-.87,23.62-9.11.73,3.76,1.49,7.57,2.4,11.31.67,2.76,1.3,5.63,1.9,8.42,2.36,10.77,4.79,21.91,10.48,31.41a46.07,46.07,0,0,0,2.73,3.9c.37.5.75,1,1.12,1.51-2.36,1.62-9.78,5.31-12.69,6.71a.75.75,0,0,0-.38.93c.91,2.53,2.91,7.62,4.89,10A30.55,30.55,0,0,0,72.76,149.91Zm16-7.12a8.18,8.18,0,0,1-4.31,4.33,16.45,16.45,0,0,1-5.1,1.3l-.27,0c-.92-.18-3.24-4.52-5.12-9.54,2.22-1.08,9.66-4.74,12.3-6.55C88.54,135.7,90.21,139.14,88.74,142.79Z"/></svg>