<svg id="Capa_1" data-name="Capa 1" xmlns="http://www.w3.org/2000/svg" viewBox="0 0 91.48 167.5"><defs><style>.cls-1{fill:#373737;}</style></defs><title>Mesa de trabajo 7 copia 17</title><path class="cls-1" d="M85.68,128.8A43.94,43.94,0,0,1,83,125c-5.56-9.29-8-20.3-10.3-31-.61-2.79-1.24-5.67-1.91-8.45-1.22-5-1.9-9.26-2.56-13.34A98.52,98.52,0,0,0,63.45,52.2c-5-13.65-12.36-23.9-26.26-36.53-1.32-1.2-.7-3.83.23-7.82.42-1.8.89-3.84,1.27-6.13a.75.75,0,0,0-.61-.86.76.76,0,0,0-.87.61c-.37,2.25-.84,4.26-1.25,6-1,4.34-1.75,7.48.22,9.27,13.7,12.46,21,22.53,25.86,35.94a97.32,97.32,0,0,1,4.75,19.8c.67,4.11,1.35,8.36,2.58,13.45.67,2.76,1.3,5.64,1.91,8.42C73.6,105,76,116,81.53,125.42c-1,1.64-5,8.49-9.1,12.1-7.55,4.6-17.25,8.68-24.91,5.77l1.42-2.08c.75-1.12,1.65-2.43,2.65-3.72,1.56-2,4.31-5.9,5.21-9.51,3.4-13.59-3.24-27.27-10.33-40.12-6.33-11.47-13.93-25-22.25-38.25l-1.83-3a87.87,87.87,0,0,0-8.33-12c-1.22-1.39-2.51-2.72-3.76-4A56.27,56.27,0,0,1,3.61,22.8c-3.59-5.39.07-20.87.11-21a.76.76,0,0,0-.56-.9.74.74,0,0,0-.9.55c-.16.67-3.85,16.28.1,22.21a57.28,57.28,0,0,0,6.86,8c1.24,1.28,2.52,2.6,3.71,4a86.24,86.24,0,0,1,8.18,11.84c.62,1,1.23,2,1.84,3,8.3,13.23,15.89,26.73,22.21,38.19,6.94,12.58,13.45,26,10.18,39-.83,3.35-3.45,7-4.93,9-1,1.33-1.95,2.66-2.71,3.8-5.22,7.75-9.27,13.07-17.67,16.3-1.11.48-2.21.87-3.28,1.24-3.25,1.16-6.06,2.16-5.42,4.72.78,3.11,2,4.38,11.54,4.38,1.67,0,3.15,0,4.5.06l1.49,0h1.6c4.52,0,7.65-.47,11.91-3.41,12.48-8.65,14.94-10.19,21.11-12.31A30.1,30.1,0,0,1,79.77,150a17.53,17.53,0,0,0,5.51-1.42,9.65,9.65,0,0,0,5.09-5.14C92.56,138,88.9,133.11,85.68,128.8Zm-3.26-1.94c.48.72,1,1.44,1.58,2.19-1,.85-3.32,2.84-6.51,5.11A71.72,71.72,0,0,0,82.42,126.86ZM32.87,165.51c-9.27,0-9.56-1.15-10.08-3.25-.3-1.17,1.5-1.88,4.47-2.93.89-.32,1.9-.69,2.88-1.09a1.35,1.35,0,0,0,.26.15L36,160.26c.33.23,1.91,1.54,2.1,5.32H37.4C36,165.54,34.55,165.51,32.87,165.51ZM89,142.85a8.18,8.18,0,0,1-4.31,4.33,16,16,0,0,1-5.1,1.3A31.35,31.35,0,0,0,73,150c-6.35,2.18-8.84,3.75-21.48,12.49-4.15,2.88-7.06,3.2-11.88,3.14-.24-5.06-2.78-6.6-2.89-6.67l-.14-.06-4.41-1.47c6.51-2.88,10.37-7.11,14.45-12.85a17.25,17.25,0,0,0,6.58,1.25c5.3,0,11.52-2.05,18.57-6.13a90.48,90.48,0,0,0,13.11-9.41C87.89,134.27,90.77,138.41,89,142.85Z"/></svg>