<?xml version="1.0" standalone="no"?>
<!DOCTYPE svg PUBLIC "-//W3C//DTD SVG 20010904//EN"
 "http://www.w3.org/TR/2001/REC-SVG-20010904/DTD/svg10.dtd">
<svg version="1.0" xmlns="http://www.w3.org/2000/svg"
 width="800.000000pt" height="800.000000pt" viewBox="0 0 800.000000 800.000000"
 preserveAspectRatio="xMidYMid meet">
<metadata>
Created by potrace 1.11, written by Peter Selinger 2001-2013
</metadata>
<g transform="translate(0.000000,800.000000) scale(0.100000,-0.100000)"
fill="#000000" stroke="none">
<path d="M2996 5683 c-2 -2 -30 -6 -62 -8 -33 -2 -75 -6 -94 -9 -19 -2 -60 -7
-90 -11 -30 -3 -86 -13 -125 -20 -38 -8 -85 -17 -104 -20 -19 -3 -37 -8 -41
-10 -3 -2 -17 -6 -31 -8 -226 -42 -586 -190 -773 -317 -65 -44 -156 -123 -156
-136 0 -3 -11 -20 -24 -37 -84 -112 -127 -299 -93 -401 20 -62 76 -116 137
-134 8 -3 42 -5 75 -5 140 1 263 121 234 227 -24 86 26 160 170 256 62 42 224
122 351 175 36 15 84 36 107 46 23 10 46 19 51 19 5 0 22 7 39 15 16 8 38 16
49 18 10 2 32 9 49 16 50 21 147 41 198 41 40 0 49 -4 58 -24 9 -20 7 -32 -15
-73 -15 -26 -47 -70 -71 -96 -57 -63 -136 -160 -180 -222 -11 -15 -29 -39 -40
-54 -27 -34 -130 -179 -186 -261 -24 -36 -48 -70 -54 -77 -5 -7 -14 -18 -20
-25 -20 -26 -486 -729 -510 -770 -5 -10 -56 -89 -113 -177 -155 -243 -278
-443 -291 -476 -2 -5 -7 -12 -11 -15 -7 -5 -64 -107 -117 -210 -49 -95 -33
-144 57 -170 83 -24 139 2 245 112 103 108 245 285 245 307 0 5 4 11 9 13 5 2
62 86 126 188 161 253 230 354 289 425 69 81 91 100 156 132 51 26 64 28 170
28 63 -1 140 -4 170 -8 289 -41 625 58 972 284 97 63 87 56 203 152 399 331
570 715 420 942 -48 72 -124 140 -205 184 -141 77 -280 123 -470 157 -14 2
-34 6 -45 8 -11 3 -45 7 -75 11 -30 3 -77 8 -105 11 -53 7 -474 12 -479 7z
m634 -308 c19 -4 41 -12 48 -17 6 -6 12 -8 12 -5 0 10 72 -26 138 -68 123 -78
145 -204 66 -371 -47 -99 -105 -175 -224 -294 -67 -67 -229 -200 -244 -200 -3
0 -29 -15 -58 -33 -76 -48 -170 -90 -273 -123 -79 -25 -105 -29 -210 -28 -66
0 -129 3 -140 6 -11 4 -26 7 -33 7 -7 1 -24 12 -37 26 -21 20 -24 30 -19 62 8
50 113 260 167 333 9 14 17 28 17 32 0 5 15 30 34 56 18 27 37 58 40 70 4 12
12 22 17 22 5 0 9 5 9 10 0 13 100 164 112 168 4 2 8 10 8 18 0 8 4 14 8 14 5
0 14 10 19 23 30 62 227 244 293 269 85 32 170 40 250 23z"/>
<path d="M6085 4483 c-33 -7 -70 -15 -81 -17 -64 -13 -274 -91 -355 -131 -96
-49 -205 -113 -250 -149 -14 -12 -43 -34 -65 -51 -102 -79 -264 -259 -264
-293 0 -7 -4 -12 -8 -12 -13 0 -45 -109 -47 -157 -4 -100 74 -188 221 -247 54
-22 277 -92 322 -101 57 -11 174 -70 211 -106 87 -83 -19 -157 -324 -230 -173
-41 -280 -15 -343 82 -41 63 -83 84 -124 63 -42 -22 -98 -74 -124 -116 -48
-76 -35 -176 32 -244 37 -36 109 -84 128 -84 8 0 17 -4 20 -9 3 -5 20 -12 38
-15 18 -3 44 -9 58 -11 57 -12 177 -11 239 2 36 7 82 16 101 19 54 10 228 69
305 104 246 113 393 264 400 414 3 52 -21 146 -36 146 -5 0 -9 6 -9 13 0 19
-76 90 -141 130 -70 44 -101 58 -279 118 -80 28 -161 57 -180 65 -94 42 -161
79 -181 100 -19 21 -20 24 -5 53 17 33 109 111 131 111 7 0 18 6 24 13 6 8 30
20 53 27 24 8 48 17 53 20 28 19 237 74 325 86 30 4 93 7 140 6 47 -1 123 -2
170 -2 73 -1 118 3 128 10 1 2 5 3 10 4 16 2 51 42 62 70 13 36 14 150 1 193
-27 90 -96 133 -219 136 -42 2 -104 -3 -137 -10z"/>
<path d="M4442 4198 c-7 -7 -12 -8 -12 -2 0 5 -4 4 -8 -1 -4 -6 -20 -21 -37
-33 -92 -71 -215 -318 -217 -435 -2 -74 1 -85 31 -113 33 -31 46 -35 116 -37
65 -2 123 31 193 108 124 135 183 313 136 409 -18 39 -51 76 -86 99 -31 20
-98 23 -116 5z"/>
</g>
</svg>
